<svg width="65" height="64" viewBox="0 0 65 64" fill="none" xmlns="http://www.w3.org/2000/svg">
<rect width="65" height="64" fill="#F5F5F5"/>
<g id="Blue">
<rect width="673" height="474" transform="translate(-249 -109)" fill="white"/>
<g id="Group 9">
<g id="Group 8">
<g id="chemistry and metallurgy">
<g id="Group 3">
<g id="Group 2">
<path id="Polygon 1 (Stroke)" fill-rule="evenodd" clip-rule="evenodd" d="M21.671 21.7458L12.7907 26.8729V37.127L21.671 42.2541L30.5514 37.127V26.8729L21.671 21.7458ZM33.218 25.3333L21.671 18.6666L10.124 25.3333V38.6666L21.671 45.3333L33.218 38.6666V25.3333Z" fill="#2F80ED"/>
<path id="Polygon 2 (Stroke)" fill-rule="evenodd" clip-rule="evenodd" d="M43.0044 21.7458L34.124 26.8729V37.127L43.0044 42.2541L51.8847 37.127V26.8729L43.0044 21.7458ZM54.5514 25.3333L43.0044 18.6666L31.4573 25.3333V38.6666L43.0044 45.3333L54.5514 38.6666V25.3333Z" fill="#2F80ED"/>
<path id="Vector 565 (Stroke)" fill-rule="evenodd" clip-rule="evenodd" d="M23.0044 14.6666V20H20.3377V14.6666H23.0044ZM44.3377 14.6666V20H41.671V14.6666H44.3377ZM20.3377 49.3333V44H23.0044V49.3333H20.3377ZM41.671 49.3333V44H44.3377V49.3333H41.671Z" fill="#2F80ED"/>
<path id="Vector 566 (Stroke)" fill-rule="evenodd" clip-rule="evenodd" d="M28.071 28.2666V37.0666H25.9377V28.2666H28.071Z" fill="#2F80ED"/>
<path id="Vector 567 (Stroke)" fill-rule="evenodd" clip-rule="evenodd" d="M49.9996 35.3397L42.4305 39.8286L41.3423 37.9937L48.9114 33.5048L49.9996 35.3397Z" fill="#2F80ED"/>
</g>
</g>
</g>
</g>
</g>
</g>
</svg>
